<svg viewBox="0 0 512 512" xmlns="http://www.w3.org/2000/svg">
  <defs>
    <linearGradient id="bg" x1="0%" y1="0%" x2="100%" y2="100%">
      <stop offset="0%" style="stop-color:#1f2937;stop-opacity:1" />
      <stop offset="100%" style="stop-color:#111827;stop-opacity:1" />
    </linearGradient>
    <linearGradient id="controller" x1="0%" y1="0%" x2="100%" y2="100%">
      <stop offset="0%" style="stop-color:#3b82f6;stop-opacity:1" />
      <stop offset="50%" style="stop-color:#6366f1;stop-opacity:1" />
      <stop offset="100%" style="stop-color:#8b5cf6;stop-opacity:1" />
    </linearGradient>
    <linearGradient id="accent" x1="0%" y1="0%" x2="100%" y2="100%">
      <stop offset="0%" style="stop-color:#f59e0b;stop-opacity:1" />
      <stop offset="100%" style="stop-color:#ef4444;stop-opacity:1" />
    </linearGradient>
  </defs>
  
  <!-- Background circle -->
  <circle cx="256" cy="256" r="240" fill="url(#bg)" stroke="url(#controller)" stroke-width="8"/>
  
  <!-- Game controller -->
  <g transform="translate(256,256)">
    <!-- Controller body -->
    <path d="M-80,-40 Q-120,-40 -120,-10 Q-120,20 -80,50 L80,50 Q120,20 120,-10 Q120,-40 80,-40 Z" 
          fill="url(#controller)" stroke="#1e293b" stroke-width="3"/>
    
    <!-- Left analog stick -->
    <circle cx="-60" cy="0" r="18" fill="#374151" stroke="#1f2937" stroke-width="2"/>
    <circle cx="-60" cy="0" r="12" fill="#6b7280"/>
    
    <!-- Right analog stick -->
    <circle cx="60" cy="0" r="18" fill="#374151" stroke="#1f2937" stroke-width="2"/>
    <circle cx="60" cy="0" r="12" fill="#6b7280"/>
    
    <!-- D-pad -->
    <g transform="translate(-60,-30)">
      <rect x="-3" y="-12" width="6" height="24" fill="#374151" rx="2"/>
      <rect x="-12" y="-3" width="24" height="6" fill="#374151" rx="2"/>
    </g>
    
    <!-- Action buttons -->
    <circle cx="40" cy="-35" r="8" fill="url(#accent)"/>
    <circle cx="60" cy="-25" r="8" fill="#10b981"/>
    <circle cx="50" cy="-15" r="8" fill="#3b82f6"/>
    <circle cx="30" cy="-25" r="8" fill="#f59e0b"/>
    
    <!-- Shoulder buttons -->
    <rect x="-90" y="-55" width="20" height="12" fill="#374151" rx="6"/>
    <rect x="70" y="-55" width="20" height="12" fill="#374151" rx="6"/>
  </g>
  
  <!-- Gaming elements decoration -->
  <g opacity="0.3">
    <!-- Pixel decorations -->
    <rect x="100" y="100" width="12" height="12" fill="#3b82f6"/>
    <rect x="400" y="400" width="12" height="12" fill="#f59e0b"/>
    <rect x="400" y="100" width="12" height="12" fill="#10b981"/>
    <rect x="100" y="400" width="12" height="12" fill="#ef4444"/>
    
    <!-- Star decorations -->
    <polygon points="450,150 455,160 465,160 457,167 460,177 450,170 440,177 443,167 435,160 445,160" fill="#fbbf24"/>
    <polygon points="70,350 75,360 85,360 77,367 80,377 70,370 60,377 63,367 55,360 65,360" fill="#fbbf24"/>
  </g>
</svg> 