<svg xmlns="http://www.w3.org/2000/svg" viewBox="0 0 64 64" role="img" aria-labelledby="title">
    <title id="title">PlayArcadeX</title>
    <rect width="64" height="64" rx="12" fill="#0b1020"/>
    <path fill="#34d399" d="M20 24h24a10 10 0 0 1 9.8 8.1l1.5 7.8a7 7 0 0 1-12.1 5.9l-3.4-3.6H24.2l-3.4 3.6A7 7 0 0 1 8.7 39.9l1.5-7.8A10 10 0 0 1 20 24Z"/>
    <path fill="#071016" d="M22 31h4v4h4v4h-4v4h-4v-4h-4v-4h4v-4Zm22 4a3 3 0 1 1-6 0 3 3 0 0 1 6 0Zm7 6a3 3 0 1 1-6 0 3 3 0 0 1 6 0Z"/>
    <path fill="#38bdf8" d="M26 17h12a3 3 0 0 1 3 3v4H23v-4a3 3 0 0 1 3-3Z"/>
</svg>
